<?xml version="1.0" standalone="no"?>
<!DOCTYPE svg PUBLIC "-//W3C//DTD SVG 20010904//EN"
 "http://www.w3.org/TR/2001/REC-SVG-20010904/DTD/svg10.dtd">
<svg version="1.0" xmlns="http://www.w3.org/2000/svg"
 width="867.000000pt" height="1280.000000pt" viewBox="0 0 867.000000 1280.000000"
 preserveAspectRatio="xMidYMid meet">
<metadata>
Created by potrace 1.15, written by Peter Selinger 2001-2017
</metadata>
<g transform="translate(0.000000,1280.000000) scale(0.100000,-0.100000)"
fill="#000000" stroke="none">
<path d="M3 9118 c4 -2026 7 -4906 7 -6400 l0 -2718 1448 0 c1620 0 1620 0
2002 76 1004 201 2068 692 2889 1332 353 275 726 641 997 977 519 644 895
1400 1108 2226 230 896 278 1970 130 2929 -241 1558 -1005 2864 -2241 3827
-897 700 -2051 1213 -3153 1401 l-155 26 -1519 3 -1519 4 6 -3683z m2537 1382
c681 -43 1241 -190 1770 -466 956 -499 1648 -1404 1930 -2523 240 -956 158
-2004 -227 -2891 -476 -1096 -1392 -1874 -2560 -2175 -302 -78 -628 -128 -908
-140 -77 -3 -168 -8 -202 -11 l-63 -5 0 4111 0 4110 48 0 c26 0 121 -5 212
-10z"/>
</g>
</svg>
